<?xml version="1.0" encoding="UTF-8"?>
<svg xmlns="http://www.w3.org/2000/svg" xmlns:xlink="http://www.w3.org/1999/xlink" width="64px" height="64px" viewBox="0 0 64 64" version="1.1">
<g id="surface1">
<path style=" stroke:none;fill-rule:nonzero;fill:rgb(100%,100%,100%);fill-opacity:1;" d="M 0.0195312 63.972656 L 0.0195312 0 L 63.992188 0 L 63.992188 63.972656 Z M 0.0195312 63.972656 "/>
<path style=" stroke:none;fill-rule:nonzero;fill:rgb(0%,0%,0%);fill-opacity:1;" d="M 29.886719 21.164062 C 27.300781 21.539062 25.039062 22.773438 23.257812 24.777344 C 21.558594 26.699219 20.472656 28.945312 20.082031 31.351562 C 19.929688 32.265625 19.929688 34.140625 20.082031 35.0625 C 20.394531 36.984375 21.101562 38.554688 22.257812 39.882812 C 24.261719 42.183594 26.9375 43.183594 29.910156 42.742188 C 32.414062 42.367188 34.492188 41.171875 36.222656 39.113281 C 36.8125 38.402344 37.488281 37.394531 37.851562 36.679688 C 37.996094 36.390625 38.121094 36.160156 38.140625 36.160156 C 38.164062 36.160156 38.226562 36.335938 38.292969 36.554688 C 38.625 37.703125 39.296875 38.902344 40.167969 39.878906 C 41.734375 41.644531 43.585938 42.589844 45.960938 42.84375 C 46.933594 42.945312 48.375 42.769531 49.585938 42.402344 C 51.671875 41.773438 53.421875 40.601562 54.921875 38.832031 C 56.960938 36.425781 57.925781 33.625 57.78125 30.5 C 57.664062 27.832031 56.953125 25.910156 55.480469 24.257812 C 54.15625 22.777344 52.605469 21.84375 50.808594 21.457031 C 50.023438 21.292969 48.378906 21.285156 47.433594 21.457031 C 45.535156 21.785156 43.910156 22.457031 42.578125 23.46875 C 40.777344 24.832031 39.117188 27.210938 38.386719 29.457031 L 38.21875 29.988281 L 34.070312 30.023438 C 30.789062 30.050781 29.886719 30.078125 29.777344 30.144531 C 29.542969 30.296875 28.199219 33.546875 28.199219 33.949219 C 28.203125 34.457031 28.214844 34.457031 31.0625 34.457031 L 33.570312 34.457031 L 33.316406 34.84375 C 32.203125 36.582031 30.699219 37.476562 29.070312 37.367188 C 27.894531 37.285156 27.183594 36.929688 26.40625 36.050781 C 25.839844 35.410156 25.503906 34.707031 25.328125 33.8125 C 25.195312 33.117188 25.238281 31.871094 25.417969 31.078125 C 25.683594 29.945312 26.382812 28.71875 27.191406 27.988281 C 28.886719 26.449219 30.585938 26.140625 32.269531 27.054688 C 32.707031 27.292969 32.894531 27.449219 33.261719 27.875 C 33.511719 28.160156 33.757812 28.417969 33.8125 28.453125 C 33.882812 28.5 34.367188 28.378906 35.378906 28.078125 C 36.1875 27.832031 37.234375 27.527344 37.710938 27.390625 C 38.1875 27.253906 38.636719 27.082031 38.707031 27.019531 L 38.835938 26.898438 L 38.675781 26.488281 C 38.273438 25.425781 37.421875 24.117188 36.664062 23.378906 C 36.179688 22.910156 35.453125 22.355469 34.898438 22.042969 C 34.300781 21.707031 33.171875 21.3125 32.472656 21.195312 C 31.792969 21.082031 30.542969 21.066406 29.886719 21.164062 Z M 49.875 26.78125 C 50.578125 27.046875 50.960938 27.320312 51.507812 27.941406 C 52.050781 28.554688 52.40625 29.265625 52.601562 30.089844 C 52.75 30.746094 52.734375 32.007812 52.570312 32.714844 C 52.3125 33.8125 51.640625 35.046875 50.949219 35.722656 C 50.273438 36.371094 49.417969 36.917969 48.636719 37.195312 C 48.253906 37.332031 48.058594 37.355469 47.3125 37.355469 C 46.484375 37.355469 46.40625 37.339844 45.90625 37.140625 C 45.207031 36.855469 44.78125 36.5625 44.296875 36.023438 C 43.851562 35.53125 43.472656 34.859375 43.261719 34.183594 C 43.140625 33.792969 43.121094 33.617188 43.128906 32.683594 C 43.128906 31.707031 43.140625 31.578125 43.296875 31.046875 C 43.652344 29.824219 44.238281 28.78125 44.972656 28.070312 C 46.316406 26.769531 48.398438 26.214844 49.875 26.78125 Z M 49.875 26.78125 "/>
<path style=" stroke:none;fill-rule:nonzero;fill:rgb(0%,0%,0%);fill-opacity:1;" d="M 14.648438 26.613281 C 12.425781 26.632812 10.585938 26.660156 10.574219 26.679688 C 10.398438 26.878906 9.988281 27.539062 10.007812 27.59375 C 10.035156 27.695312 19.0625 27.730469 19.273438 27.636719 C 19.414062 27.574219 19.875 26.835938 19.875 26.6875 C 19.875 26.578125 19.695312 26.542969 19.195312 26.558594 C 18.925781 26.570312 16.878906 26.589844 14.648438 26.613281 Z M 14.648438 26.613281 "/>
<path style=" stroke:none;fill-rule:nonzero;fill:rgb(0%,0%,0%);fill-opacity:1;" d="M 6.871094 29.25 C 6.746094 29.304688 6.183594 30.160156 6.21875 30.226562 C 6.28125 30.335938 18.199219 30.316406 18.320312 30.207031 C 18.417969 30.117188 18.609375 29.539062 18.609375 29.328125 C 18.609375 29.210938 18.382812 29.203125 12.78125 29.210938 C 9.566406 29.210938 6.914062 29.230469 6.871094 29.25 Z M 6.871094 29.25 "/>
<path style=" stroke:none;fill-rule:nonzero;fill:rgb(0%,0%,0%);fill-opacity:1;" d="M 12.703125 31.933594 C 12.582031 32.066406 12.28125 32.695312 12.28125 32.820312 C 12.28125 32.925781 17.921875 32.914062 17.988281 32.796875 C 18.066406 32.65625 18.117188 31.972656 18.050781 31.878906 C 18.007812 31.816406 17.40625 31.796875 15.410156 31.796875 C 12.917969 31.796875 12.816406 31.800781 12.703125 31.933594 Z M 12.703125 31.933594 "/>
</g>
</svg>
