<svg version="1.1" xmlns="http://www.w3.org/2000/svg" xmlns:xlink="http://www.w3.org/1999/xlink" width="64px" height="64px" viewBox="0,0,256,256"><g fill="#00ff00" fill-rule="nonzero" stroke="none" stroke-width="1" stroke-linecap="butt" stroke-linejoin="miter" stroke-miterlimit="10" stroke-dasharray="" stroke-dashoffset="0" font-family="none" font-weight="none" font-size="none" text-anchor="none" style="mix-blend-mode: normal"><path d="M0,256v-256h256v256z" id="bgRectangle"></path></g><g fill="none" fill-rule="nonzero" stroke="none" stroke-width="none" stroke-linecap="butt" stroke-linejoin="none" stroke-miterlimit="10" stroke-dasharray="" stroke-dashoffset="0" font-family="none" font-weight="none" font-size="none" text-anchor="none" style="mix-blend-mode: normal"><path transform="translate(-0.02344,0.05469) scale(4,4)" d="M0.01953,63.97266v-63.97266h63.97266v63.97266z" id="strokeMainSVG" fill="#dddddd" stroke="#dddddd" stroke-width="8" stroke-linejoin="round"></path><g transform="translate(-0.02344,0.05469) scale(4,4)" stroke="none" stroke-width="1" stroke-linejoin="miter"><g id="surface1"><path d="M0.01953,63.97266v-63.97266h63.97266v63.97266zM0.01953,63.97266" fill="#00ff00"></path><path d="M29.88672,21.16406c-2.58594,0.375 -4.84766,1.60938 -6.62891,3.61328c-1.69922,1.92188 -2.78516,4.16797 -3.17578,6.57422c-0.15234,0.91406 -0.15234,2.78906 0,3.71094c0.3125,1.92188 1.01953,3.49219 2.17578,4.82031c2.00391,2.30078 4.67969,3.30078 7.65234,2.85938c2.50391,-0.375 4.58203,-1.57031 6.3125,-3.62891c0.58984,-0.71094 1.26563,-1.71875 1.62891,-2.43359c0.14453,-0.28906 0.26953,-0.51953 0.28906,-0.51953c0.02344,0 0.08594,0.17578 0.15234,0.39453c0.33203,1.14844 1.00391,2.34766 1.875,3.32422c1.56641,1.76563 3.41797,2.71094 5.79297,2.96484c0.97266,0.10156 2.41406,-0.07422 3.625,-0.44141c2.08594,-0.62891 3.83594,-1.80078 5.33594,-3.57031c2.03906,-2.40625 3.00391,-5.20703 2.85938,-8.33203c-0.11719,-2.66797 -0.82812,-4.58984 -2.30078,-6.24219c-1.32422,-1.48047 -2.875,-2.41406 -4.67187,-2.80078c-0.78516,-0.16406 -2.42969,-0.17187 -3.375,0c-1.89844,0.32813 -3.52344,1 -4.85547,2.01172c-1.80078,1.36328 -3.46094,3.74219 -4.19141,5.98828l-0.16797,0.53125l-4.14844,0.03516c-3.28125,0.02734 -4.18359,0.05469 -4.29297,0.12109c-0.23437,0.15234 -1.57812,3.40234 -1.57812,3.80469c0.00391,0.50781 0.01563,0.50781 2.86328,0.50781h2.50781l-0.25391,0.38672c-1.11328,1.73828 -2.61719,2.63281 -4.24609,2.52344c-1.17578,-0.08203 -1.88672,-0.4375 -2.66406,-1.31641c-0.56641,-0.64062 -0.90234,-1.34375 -1.07812,-2.23828c-0.13281,-0.69531 -0.08984,-1.94141 0.08984,-2.73437c0.26563,-1.13281 0.96484,-2.35937 1.77344,-3.08984c1.69531,-1.53906 3.39453,-1.84766 5.07813,-0.93359c0.4375,0.23828 0.625,0.39453 0.99219,0.82031c0.25,0.28516 0.49609,0.54297 0.55078,0.57813c0.07031,0.04688 0.55469,-0.07422 1.56641,-0.375c0.80859,-0.24609 1.85547,-0.55078 2.33203,-0.6875c0.47656,-0.13672 0.92578,-0.30859 0.99609,-0.37109l0.12891,-0.12109l-0.16016,-0.41016c-0.40234,-1.0625 -1.25391,-2.37109 -2.01172,-3.10937c-0.48437,-0.46875 -1.21094,-1.02344 -1.76562,-1.33594c-0.59766,-0.33594 -1.72656,-0.73047 -2.42578,-0.84766c-0.67969,-0.11328 -1.92969,-0.12891 -2.58594,-0.03125zM49.875,26.78125c0.70313,0.26563 1.08594,0.53906 1.63281,1.16016c0.54297,0.61328 0.89844,1.32422 1.09375,2.14844c0.14844,0.65625 0.13281,1.91797 -0.03125,2.625c-0.25781,1.09766 -0.92969,2.33203 -1.62109,3.00781c-0.67578,0.64844 -1.53125,1.19531 -2.3125,1.47266c-0.38281,0.13672 -0.57812,0.16016 -1.32422,0.16016c-0.82812,0 -0.90625,-0.01562 -1.40625,-0.21484c-0.69922,-0.28516 -1.125,-0.57812 -1.60937,-1.11719c-0.44531,-0.49219 -0.82422,-1.16406 -1.03516,-1.83984c-0.12109,-0.39062 -0.14062,-0.56641 -0.13281,-1.5c0,-0.97656 0.01172,-1.10547 0.16797,-1.63672c0.35547,-1.22266 0.94141,-2.26562 1.67578,-2.97656c1.34375,-1.30078 3.42578,-1.85547 4.90234,-1.28906zM49.875,26.78125" fill="#000000"></path><path d="M14.64844,26.61328c-2.22266,0.01953 -4.0625,0.04688 -4.07422,0.06641c-0.17578,0.19922 -0.58594,0.85937 -0.56641,0.91406c0.02734,0.10156 9.05469,0.13672 9.26563,0.04297c0.14062,-0.0625 0.60156,-0.80078 0.60156,-0.94922c0,-0.10937 -0.17969,-0.14453 -0.67969,-0.12891c-0.26953,0.01172 -2.31641,0.03125 -4.54687,0.05469zM14.64844,26.61328" fill="#000000"></path><path d="M6.87109,29.25c-0.125,0.05469 -0.6875,0.91016 -0.65234,0.97656c0.0625,0.10938 11.98047,0.08984 12.10156,-0.01953c0.09766,-0.08984 0.28906,-0.66797 0.28906,-0.87891c0,-0.11719 -0.22656,-0.125 -5.82812,-0.11719c-3.21484,0 -5.86719,0.01953 -5.91016,0.03906zM6.87109,29.25" fill="#000000"></path><path d="M12.70313,31.93359c-0.12109,0.13281 -0.42187,0.76172 -0.42187,0.88672c0,0.10547 5.64063,0.09375 5.70703,-0.02344c0.07813,-0.14062 0.12891,-0.82422 0.0625,-0.91797c-0.04297,-0.0625 -0.64453,-0.08203 -2.64062,-0.08203c-2.49219,0 -2.59375,0.00391 -2.70703,0.13672zM12.70313,31.93359" fill="#000000"></path></g></g></g></svg>